<svg width="645" height="296" viewBox="0 0 645 296" fill="none" xmlns="http://www.w3.org/2000/svg">
<g clip-path="url(#clip0_14_1423)">
<path d="M357.124 175.371V10.6134C357.127 7.79956 358.21 5.10184 360.135 3.11212C362.06 1.12239 364.67 0.00316929 367.392 0H634.882C637.565 0.00316537 640.137 1.10605 642.033 3.06668C643.93 5.02732 644.997 7.68558 645 10.4583V175.371C644.996 179.012 643.595 182.502 641.104 185.077C638.613 187.652 635.236 189.1 631.714 189.104H370.411C366.888 189.1 363.511 187.652 361.02 185.077C358.529 182.502 357.128 179.012 357.124 175.371Z" fill="white"/>
<path d="M357.124 175.371V10.6134C357.127 7.79956 358.21 5.10184 360.135 3.11212C362.06 1.12239 364.67 0.00316929 367.392 0H634.882C637.565 0.00316537 640.137 1.10605 642.033 3.06668C643.93 5.02732 644.997 7.68558 645 10.4583V175.371C644.996 179.012 643.595 182.502 641.104 185.077C638.613 187.652 635.236 189.1 631.714 189.104H370.411C366.888 189.1 363.511 187.652 361.02 185.077C358.529 182.502 357.128 179.012 357.124 175.371ZM367.392 2.96934C365.431 2.97161 363.552 3.77769 362.165 5.21075C360.779 6.64381 359.999 8.5868 359.997 10.6134V175.371C360 178.224 361.098 180.96 363.05 182.978C365.003 184.996 367.65 186.131 370.411 186.135H631.714C634.474 186.131 637.121 184.996 639.074 182.978C641.026 180.96 642.124 178.224 642.127 175.371V10.4583C642.125 8.47284 641.361 6.56935 640.003 5.16539C638.645 3.76144 636.803 2.97166 634.882 2.96934H367.392Z" fill="#E6E6E6"/>
<path d="M517.801 139.185V49.9191C517.804 47.7542 518.637 45.6786 520.118 44.1478C521.599 42.617 523.607 41.7559 525.701 41.7534H603.998C606.092 41.7559 608.1 42.617 609.581 44.1478C611.062 45.6786 611.895 47.7542 611.898 49.9191V139.185C611.9 139.542 611.877 139.898 611.83 140.252C611.577 142.214 610.644 144.015 609.203 145.321C607.763 146.626 605.913 147.348 603.998 147.35H525.701C523.607 147.348 521.599 146.487 520.118 144.956C518.637 143.425 517.804 141.35 517.801 139.185ZM525.701 46.2074C524.749 46.2085 523.837 46.6 523.163 47.2958C522.49 47.9916 522.112 48.935 522.11 49.9191V139.185C522.112 140.169 522.49 141.112 523.163 141.808C523.837 142.504 524.749 142.895 525.701 142.896H603.998C604.873 142.894 605.717 142.562 606.373 141.963C607.029 141.364 607.451 140.539 607.561 139.641C607.581 139.49 607.59 139.337 607.589 139.185V49.9191C607.588 48.935 607.209 47.9916 606.536 47.2958C605.863 46.6 604.95 46.2085 603.998 46.2074H525.701Z" fill="#E6E6E6"/>
<path d="M390.226 112.386C390.228 110.812 390.834 109.302 391.911 108.189C392.988 107.076 394.449 106.45 395.972 106.448H490.772C492.296 106.448 493.757 107.073 494.835 108.187C495.912 109.301 496.518 110.811 496.518 112.386C496.518 113.961 495.912 115.472 494.835 116.586C493.757 117.699 492.296 118.325 490.772 118.325H395.972C394.449 118.323 392.988 117.697 391.911 116.584C390.834 115.47 390.228 113.961 390.226 112.386Z" fill="#E6E6E6"/>
<path d="M390.226 87.1472C390.228 85.5727 390.834 84.0632 391.911 82.9499C392.988 81.8366 394.449 81.2103 395.972 81.2085H447.681C449.205 81.2085 450.666 81.8342 451.744 82.9479C452.821 84.0616 453.427 85.5721 453.427 87.1472C453.427 88.7222 452.821 90.2327 451.744 91.3465C450.666 92.4602 449.205 93.0858 447.681 93.0858H395.972C394.449 93.084 392.988 92.4578 391.911 91.3445C390.834 90.2311 390.228 88.7217 390.226 87.1472Z" fill="#E6E6E6"/>
<path d="M545.5 76.4425C550.535 86.6746 554.503 97.2279 565.609 97.2279C570.943 97.2279 576.057 95.038 579.829 91.14C583.6 87.242 585.719 81.9552 585.719 76.4425C585.719 70.9299 583.6 65.6431 579.829 61.7451C576.057 57.8471 570.943 55.6572 565.609 55.6572C554.322 55.5111 536.129 57.3977 545.5 76.4425Z" fill="#2F2E41"/>
<path d="M564.62 97.6325C574.362 97.6325 582.259 89.4695 582.259 79.4C582.259 69.3304 574.362 61.1675 564.62 61.1675C554.878 61.1675 546.98 69.3304 546.98 79.4C546.98 89.4695 554.878 97.6325 564.62 97.6325Z" fill="#A0616A"/>
<path d="M588.702 112.634C587.565 111.354 586.328 110.172 585.003 109.101C579.213 104.41 571.956 102.085 564.614 102.568C564.32 102.583 564.025 102.605 563.731 102.635C559.479 102.986 555.348 104.269 551.613 106.399C547.879 108.529 544.625 111.457 542.071 114.987C539.476 118.572 537.652 122.688 536.72 127.06C535.789 131.431 535.772 135.959 536.67 140.338C536.864 141.266 537.036 142.201 537.201 143.137H595.676L596.351 138.46C597.026 133.838 596.689 129.118 595.365 124.649C594.042 120.179 591.765 116.073 588.702 112.634Z" fill="#3F3D56"/>
<path d="M597.658 117.511C597.245 115.072 596.018 112.86 594.19 111.259C592.362 109.658 590.049 108.771 587.653 108.752C587.56 108.752 587.459 108.759 587.366 108.759C586.568 108.778 585.776 108.893 585.003 109.101C583.705 109.457 582.489 110.075 581.422 110.919C580.356 111.763 579.462 112.817 578.79 114.019C578.119 115.221 577.684 116.549 577.51 117.925C577.337 119.301 577.428 120.7 577.778 122.04L583.301 143.137H601.888L597.658 117.511Z" fill="#3F3D56"/>
<path d="M556.757 111.981C556.057 110.559 555.052 109.32 553.82 108.358C552.948 107.677 551.972 107.15 550.933 106.799C550.508 106.649 550.074 106.53 549.633 106.443C547.231 105.973 544.745 106.406 542.625 107.664C540.505 108.922 538.889 110.921 538.07 113.302L527.958 143.137H547.148L556.937 121.193C557.589 119.745 557.912 118.162 557.881 116.566C557.85 114.969 557.466 113.4 556.757 111.981Z" fill="#3F3D56"/>
<path d="M545.902 69.0959C549.932 71.9675 554.717 73.4958 559.612 73.4756C557.866 74.7271 555.878 75.5725 553.785 75.9535C560.294 77.3967 567.021 77.4357 573.545 76.0683C574.996 75.8279 576.395 75.3311 577.682 74.5998C578.323 74.2295 578.882 73.7239 579.322 73.1158C579.762 72.5077 580.073 71.8107 580.235 71.0702C580.669 68.5102 578.739 66.1844 576.733 64.617C573.663 62.2538 570.122 60.6255 566.368 59.8501C562.614 59.0747 558.74 59.1715 555.027 60.1335C552.602 60.7814 550.173 61.876 548.598 63.8888C547.023 65.9015 546.556 69.0046 548.057 71.0772L545.902 69.0959Z" fill="#2F2E41"/>
<path d="M453.151 296H191.848C188.326 295.996 184.949 294.548 182.458 291.973C179.967 289.398 178.566 285.908 178.562 282.267V117.354C178.565 114.582 179.632 111.923 181.529 109.963C183.426 108.002 185.997 106.899 188.68 106.896H456.17C458.892 106.899 461.502 108.018 463.427 110.008C465.352 111.998 466.435 114.696 466.438 117.509V282.267C466.434 285.908 465.033 289.398 462.542 291.973C460.051 294.548 456.674 295.996 453.151 296Z" fill="white"/>
<path d="M453.151 296H191.848C188.326 295.996 184.949 294.548 182.458 291.973C179.967 289.398 178.566 285.908 178.562 282.267V117.354C178.565 114.582 179.632 111.923 181.529 109.963C183.426 108.002 185.997 106.899 188.68 106.896H456.17C458.892 106.899 461.502 108.018 463.427 110.008C465.352 111.998 466.435 114.696 466.438 117.509V282.267C466.434 285.908 465.033 289.398 462.542 291.973C460.051 294.548 456.674 295.996 453.151 296ZM188.68 109.865C186.759 109.868 184.917 110.657 183.559 112.061C182.201 113.465 181.437 115.369 181.435 117.354V282.267C181.438 285.12 182.536 287.856 184.488 289.874C186.441 291.892 189.088 293.027 191.848 293.031H453.151C455.912 293.027 458.559 291.892 460.512 289.874C462.464 287.856 463.562 285.12 463.565 282.267V117.509C463.563 115.483 462.783 113.54 461.397 112.107C460.01 110.674 458.131 109.868 456.17 109.865H188.68Z" fill="#3F3D56"/>
<path d="M297.861 254.246H219.564C217.649 254.244 215.799 253.522 214.359 252.217C212.919 250.911 211.985 249.11 211.732 247.148C211.685 246.794 211.662 246.438 211.664 246.081V156.815C211.667 154.65 212.5 152.575 213.981 151.044C215.462 149.513 217.47 148.652 219.564 148.649H297.861C299.955 148.652 301.963 149.513 303.444 151.044C304.925 152.575 305.758 154.65 305.761 156.815V246.081C305.758 248.246 304.925 250.321 303.444 251.852C301.963 253.383 299.955 254.244 297.861 254.246ZM219.564 153.103C218.612 153.105 217.699 153.496 217.026 154.192C216.353 154.888 215.974 155.831 215.973 156.815V246.081C215.972 246.233 215.981 246.386 216.001 246.537C216.111 247.435 216.533 248.26 217.189 248.859C217.845 249.458 218.689 249.79 219.564 249.792H297.861C298.813 249.791 299.725 249.4 300.399 248.704C301.072 248.008 301.451 247.065 301.452 246.081V156.815C301.451 155.831 301.072 154.888 300.399 154.192C299.725 153.496 298.813 153.105 297.861 153.103H219.564Z" fill="#E6E6E6"/>
<path d="M257.576 164.969C252.479 162.518 246.221 161.715 241.035 163.992C235.848 166.269 232.313 172.107 233.99 177.273C234.75 179.615 236.482 181.919 235.807 184.284C235.288 186.105 233.476 187.307 231.697 188.162C229.918 189.017 227.972 189.735 226.685 191.177C225.399 192.619 225.13 195.1 226.738 196.218C227.267 196.587 227.929 196.761 228.442 197.15C228.88 197.517 229.196 198.017 229.346 198.578C229.496 199.14 229.472 199.736 229.279 200.284C228.851 201.385 228.143 202.347 227.231 203.068C225.407 204.695 222.995 206.556 223.562 208.865C223.772 209.482 224.123 210.037 224.585 210.484C225.047 210.931 225.607 211.256 226.217 211.432C227.483 211.809 228.797 211.988 230.114 211.963L283.954 213.716C285.731 213.855 287.518 213.751 289.27 213.41C290.121 213.249 290.931 212.909 291.649 212.41C292.368 211.911 292.979 211.265 293.444 210.511C294.475 208.538 293.799 206.108 292.525 204.266C291.252 202.424 289.45 200.971 287.961 199.28C286.472 197.589 285.254 195.477 285.516 193.291C285.726 191.541 286.843 190.029 287.644 188.439C288.446 186.849 288.912 184.862 287.873 183.399C286.411 181.338 282.899 181.525 281.235 179.604C279.98 178.154 280.223 176.068 280.098 174.199C279.798 169.703 276.786 165.457 272.499 163.485C270.319 162.518 267.948 162.1 265.581 162.267C263.215 162.433 260.92 163.179 258.887 164.443L257.576 164.969Z" fill="#2F2E41"/>
<path d="M259.568 213.285C269.31 213.285 277.207 205.122 277.207 195.053C277.207 184.983 269.31 176.82 259.568 176.82C249.826 176.82 241.928 184.983 241.928 195.053C241.928 205.122 249.826 213.285 259.568 213.285Z" fill="#A0616A"/>
<path d="M282.726 236.831C282.709 233.635 281.852 230.504 280.249 227.772C278.645 225.04 276.354 222.809 273.62 221.316C273.397 221.19 273.167 221.079 272.938 220.967C270.953 219.995 268.804 219.43 266.61 219.305L249.819 218.332C247.448 218.192 245.074 218.569 242.853 219.438C242.312 219.647 241.782 219.884 241.266 220.151C239.643 220.977 238.159 222.068 236.87 223.38C235.173 225.112 233.846 227.191 232.972 229.485C232.099 231.778 231.7 234.235 231.8 236.698L232.102 244.054L234.213 249.718H281.161C281.743 248.989 282.249 248.197 282.669 247.357C283.465 245.727 283.884 243.928 283.894 242.101C283.904 240.275 283.504 238.471 282.726 236.831Z" fill="#3F3D56"/>
<path d="M281.577 227.077C280.811 225.359 279.61 223.887 278.101 222.816C277.012 222.045 275.791 221.496 274.503 221.198C273.988 221.08 273.464 221.004 272.938 220.968C271.901 220.895 270.859 220.987 269.849 221.242C268.342 221.63 266.939 222.367 265.748 223.397C264.556 224.427 263.606 225.723 262.971 227.188C262.335 228.653 262.03 230.249 262.078 231.854C262.126 233.459 262.527 235.031 263.249 236.453L269.706 249.087L270.029 249.718H291.711L281.577 227.077Z" fill="#3F3D56"/>
<path d="M246.092 220.493C245.076 219.959 243.981 219.602 242.853 219.439C242.013 219.315 241.161 219.302 240.318 219.401C238.172 219.653 236.158 220.598 234.564 222.103C232.97 223.609 231.877 225.596 231.441 227.782L227.067 249.718H244.174L247.37 248.367L251.349 232.585C251.928 230.252 251.723 227.785 250.768 225.588C249.813 223.391 248.164 221.595 246.092 220.493Z" fill="#3F3D56"/>
<path d="M241.522 192.461C247.093 191.998 251.718 186.246 251.138 180.501C251.073 182.869 251.852 185.179 253.328 186.992C254.803 188.805 256.871 189.995 259.14 190.334C261.695 190.625 264.496 189.826 266.72 191.158C269.184 192.634 269.972 196.218 272.538 197.492C275.018 198.724 278.167 197.044 279.392 194.498C280.617 191.952 280.317 188.893 279.505 186.177C278.347 182.302 276.239 178.803 273.385 176.02C270.532 173.238 267.03 171.265 263.221 170.296C259.411 169.326 255.424 169.392 251.647 170.487C247.869 171.582 244.43 173.669 241.664 176.545C239.322 178.98 237.462 182.084 237.16 185.503C236.859 188.923 238.394 192.634 241.365 194.17L241.522 192.461Z" fill="#2F2E41"/>
<path d="M427.59 225.221H332.79C331.266 225.221 329.805 224.595 328.727 223.482C327.65 222.368 327.044 220.857 327.044 219.282C327.044 217.707 327.65 216.197 328.727 215.083C329.805 213.969 331.266 213.344 332.79 213.344H427.59C429.114 213.344 430.575 213.969 431.653 215.083C432.73 216.197 433.336 217.707 433.336 219.282C433.336 220.857 432.73 222.368 431.653 223.482C430.575 224.595 429.114 225.221 427.59 225.221Z" fill="#E6E6E6"/>
<path d="M384.499 199.982H332.79C331.266 199.982 329.805 199.356 328.727 198.242C327.65 197.129 327.044 195.618 327.044 194.043C327.044 192.468 327.65 190.958 328.727 189.844C329.805 188.73 331.266 188.104 332.79 188.104H384.499C386.023 188.104 387.484 188.73 388.562 189.844C389.639 190.958 390.245 192.468 390.245 194.043C390.245 195.618 389.639 197.129 388.562 198.242C387.484 199.356 386.023 199.982 384.499 199.982Z" fill="#6C63FF"/>
<path d="M412.245 243.352C407.226 243.362 402.417 245.429 398.872 249.1C395.327 252.771 393.335 257.746 393.335 262.933C393.335 268.12 395.326 273.095 398.872 276.767C402.417 280.438 407.226 282.505 412.245 282.515C417.263 282.505 422.073 280.438 425.618 276.767C429.163 273.095 431.154 268.12 431.154 262.933C431.154 257.746 429.163 252.771 425.618 249.1C422.073 245.429 417.263 243.362 412.245 243.352Z" fill="#6C63FF"/>
<path d="M410.447 271.066C409.949 271.066 409.463 270.9 409.064 270.59L409.039 270.571L403.83 266.452C403.343 266.066 403.025 265.495 402.945 264.867C402.865 264.238 403.03 263.602 403.403 263.099C403.777 262.596 404.328 262.266 404.936 262.183C405.544 262.099 406.159 262.269 406.647 262.654L410.021 265.328L417.995 254.576C418.18 254.327 418.411 254.117 418.674 253.96C418.937 253.803 419.227 253.701 419.529 253.66C419.83 253.619 420.136 253.639 420.43 253.72C420.723 253.802 420.999 253.942 421.24 254.133L421.24 254.133L421.191 254.204L421.242 254.133C421.728 254.52 422.047 255.09 422.127 255.719C422.207 256.348 422.043 256.984 421.67 257.488L412.291 270.13C412.074 270.421 411.795 270.657 411.475 270.818C411.156 270.98 410.805 271.064 410.449 271.063L410.447 271.066Z" fill="white"/>
</g>
<defs>
<clipPath id="clip0_14_1423">
<rect width="645" height="296" fill="white"/>
</clipPath>
</defs>
</svg>
