<svg width="481" height="289" viewBox="0 0 481 289" fill="none" xmlns="http://www.w3.org/2000/svg">
<g clip-path="url(#clip0_14_603)">
<path opacity="0.1" d="M122.36 115.798H71.4157C69.6116 115.798 68.149 117.063 68.149 118.623V128C68.149 129.561 69.6116 130.826 71.4157 130.826H122.36C124.165 130.826 125.627 129.561 125.627 128V118.623C125.627 117.063 124.165 115.798 122.36 115.798Z" fill="#6C63FF"/>
<path opacity="0.1" d="M182.512 130.83H131.567C129.763 130.83 128.3 132.095 128.3 133.655V143.032C128.3 144.593 129.763 145.858 131.567 145.858H182.512C184.316 145.858 185.779 144.593 185.779 143.032V133.655C185.779 132.095 184.316 130.83 182.512 130.83Z" fill="#6C63FF"/>
<path opacity="0.1" d="M242.668 145.857H191.723C189.919 145.857 188.456 147.122 188.456 148.683V158.06C188.456 159.62 189.919 160.885 191.723 160.885H242.668C244.472 160.885 245.934 159.62 245.934 158.06V148.683C245.934 147.122 244.472 145.857 242.668 145.857Z" fill="#6C63FF"/>
<path opacity="0.1" d="M122.36 93.2559H71.4157C69.6116 93.2559 68.149 94.5208 68.149 96.0812V105.458C68.149 107.019 69.6116 108.284 71.4157 108.284H122.36C124.165 108.284 125.627 107.019 125.627 105.458V96.0812C125.627 94.5208 124.165 93.2559 122.36 93.2559Z" fill="#6C63FF"/>
<path opacity="0.1" d="M182.512 108.284H131.567C129.763 108.284 128.3 109.549 128.3 111.109V120.486C128.3 122.047 129.763 123.312 131.567 123.312H182.512C184.316 123.312 185.779 122.047 185.779 120.486V111.109C185.779 109.549 184.316 108.284 182.512 108.284Z" fill="#6C63FF"/>
<path opacity="0.1" d="M242.668 123.315H191.723C189.919 123.315 188.456 124.58 188.456 126.141V135.518C188.456 137.078 189.919 138.343 191.723 138.343H242.668C244.472 138.343 245.934 137.078 245.934 135.518V126.141C245.934 124.58 244.472 123.315 242.668 123.315Z" fill="#6C63FF"/>
<path opacity="0.1" d="M309.502 115.798H258.557C256.753 115.798 255.291 117.063 255.291 118.623V128C255.291 129.561 256.753 130.826 258.557 130.826H309.502C311.306 130.826 312.769 129.561 312.769 128V118.623C312.769 117.063 311.306 115.798 309.502 115.798Z" fill="#6C63FF"/>
<path opacity="0.1" d="M369.653 130.83H318.709C316.904 130.83 315.442 132.095 315.442 133.655V143.032C315.442 144.593 316.904 145.858 318.709 145.858H369.653C371.458 145.858 372.92 144.593 372.92 143.032V133.655C372.92 132.095 371.458 130.83 369.653 130.83Z" fill="#6C63FF"/>
<path opacity="0.1" d="M429.809 145.857H378.864C377.06 145.857 375.598 147.122 375.598 148.683V158.06C375.598 159.62 377.06 160.885 378.864 160.885H429.809C431.613 160.885 433.076 159.62 433.076 158.06V148.683C433.076 147.122 431.613 145.857 429.809 145.857Z" fill="#6C63FF"/>
<path opacity="0.1" d="M309.502 93.2559H258.557C256.753 93.2559 255.291 94.5208 255.291 96.0812V105.458C255.291 107.019 256.753 108.284 258.557 108.284H309.502C311.306 108.284 312.769 107.019 312.769 105.458V96.0812C312.769 94.5208 311.306 93.2559 309.502 93.2559Z" fill="#6C63FF"/>
<path opacity="0.1" d="M369.653 108.284H318.709C316.904 108.284 315.442 109.549 315.442 111.109V120.486C315.442 122.047 316.904 123.312 318.709 123.312H369.653C371.458 123.312 372.92 122.047 372.92 120.486V111.109C372.92 109.549 371.458 108.284 369.653 108.284Z" fill="#6C63FF"/>
<path opacity="0.1" d="M429.809 123.315H378.864C377.06 123.315 375.598 124.58 375.598 126.141V135.518C375.598 137.078 377.06 138.343 378.864 138.343H429.809C431.613 138.343 433.076 137.078 433.076 135.518V126.141C433.076 124.58 431.613 123.315 429.809 123.315Z" fill="#6C63FF"/>
<path opacity="0.1" d="M122.36 63.1958H71.4157C69.6116 63.1958 68.149 64.4608 68.149 66.0212V75.3984C68.149 76.9588 69.6116 78.2238 71.4157 78.2238H122.36C124.165 78.2238 125.627 76.9588 125.627 75.3984V66.0212C125.627 64.4608 124.165 63.1958 122.36 63.1958Z" fill="#6C63FF"/>
<path opacity="0.1" d="M182.512 78.2241H131.567C129.763 78.2241 128.3 79.4891 128.3 81.0495V90.4268C128.3 91.9872 129.763 93.2521 131.567 93.2521H182.512C184.316 93.2521 185.779 91.9872 185.779 90.4268V81.0495C185.779 79.4891 184.316 78.2241 182.512 78.2241Z" fill="#6C63FF"/>
<path opacity="0.1" d="M242.668 93.2559H191.723C189.919 93.2559 188.456 94.5208 188.456 96.0812V105.458C188.456 107.019 189.919 108.284 191.723 108.284H242.668C244.472 108.284 245.934 107.019 245.934 105.458V96.0812C245.934 94.5208 244.472 93.2559 242.668 93.2559Z" fill="#6C63FF"/>
<path opacity="0.1" d="M122.36 40.6499H71.4157C69.6116 40.6499 68.149 41.9149 68.149 43.4753V52.8525C68.149 54.4129 69.6116 55.6779 71.4157 55.6779H122.36C124.165 55.6779 125.627 54.4129 125.627 52.8525V43.4753C125.627 41.9149 124.165 40.6499 122.36 40.6499Z" fill="#6C63FF"/>
<path opacity="0.1" d="M182.512 55.6821H131.567C129.763 55.6821 128.3 56.9471 128.3 58.5075V67.8848C128.3 69.4452 129.763 70.7101 131.567 70.7101H182.512C184.316 70.7101 185.779 69.4452 185.779 67.8848V58.5075C185.779 56.9471 184.316 55.6821 182.512 55.6821Z" fill="#6C63FF"/>
<path opacity="0.1" d="M242.668 70.71H191.723C189.919 70.71 188.456 71.9749 188.456 73.5353V82.9126C188.456 84.473 189.919 85.738 191.723 85.738H242.668C244.472 85.738 245.934 84.473 245.934 82.9126V73.5353C245.934 71.9749 244.472 70.71 242.668 70.71Z" fill="#6C63FF"/>
<path opacity="0.1" d="M309.502 63.1958H258.557C256.753 63.1958 255.291 64.4608 255.291 66.0212V75.3984C255.291 76.9588 256.753 78.2238 258.557 78.2238H309.502C311.306 78.2238 312.769 76.9588 312.769 75.3984V66.0212C312.769 64.4608 311.306 63.1958 309.502 63.1958Z" fill="#6C63FF"/>
<path opacity="0.1" d="M369.653 78.2241H318.709C316.904 78.2241 315.442 79.4891 315.442 81.0495V90.4268C315.442 91.9872 316.904 93.2521 318.709 93.2521H369.653C371.458 93.2521 372.92 91.9872 372.92 90.4268V81.0495C372.92 79.4891 371.458 78.2241 369.653 78.2241Z" fill="#6C63FF"/>
<path opacity="0.1" d="M429.809 93.2559H378.864C377.06 93.2559 375.598 94.5208 375.598 96.0812V105.458C375.598 107.019 377.06 108.284 378.864 108.284H429.809C431.613 108.284 433.076 107.019 433.076 105.458V96.0812C433.076 94.5208 431.613 93.2559 429.809 93.2559Z" fill="#6C63FF"/>
<path opacity="0.1" d="M309.502 40.6499H258.557C256.753 40.6499 255.291 41.9149 255.291 43.4753V52.8525C255.291 54.4129 256.753 55.6779 258.557 55.6779H309.502C311.306 55.6779 312.769 54.4129 312.769 52.8525V43.4753C312.769 41.9149 311.306 40.6499 309.502 40.6499Z" fill="#6C63FF"/>
<path opacity="0.1" d="M369.653 55.6821H318.709C316.904 55.6821 315.442 56.9471 315.442 58.5075V67.8848C315.442 69.4452 316.904 70.7101 318.709 70.7101H369.653C371.458 70.7101 372.92 69.4452 372.92 67.8848V58.5075C372.92 56.9471 371.458 55.6821 369.653 55.6821Z" fill="#6C63FF"/>
<path opacity="0.1" d="M429.809 70.71H378.864C377.06 70.71 375.598 71.9749 375.598 73.5353V82.9126C375.598 84.473 377.06 85.738 378.864 85.738H429.809C431.613 85.738 433.076 84.473 433.076 82.9126V73.5353C433.076 71.9749 431.613 70.71 429.809 70.71Z" fill="#6C63FF"/>
<path opacity="0.1" d="M240.5 289C373.324 289 481 272.06 481 251.164C481 230.267 373.324 213.328 240.5 213.328C107.676 213.328 0 230.267 0 251.164C0 272.06 107.676 289 240.5 289Z" fill="#6C63FF"/>
<path d="M105.521 122.065L85.2962 229.299L176.748 220.933L172.791 211.807L101.344 216.94L118.052 121.875L105.521 122.065Z" fill="#3F3D56"/>
<path d="M81.7788 0.380263L204.887 0L240.5 233.101L116.952 247.551L81.7788 0.380263Z" fill="#3F3D56"/>
<path d="M95.1888 9.31641H194.554L229.288 226.066L126.845 238.235L95.1888 9.31641Z" fill="white"/>
<path d="M188.9 216.317C189.525 217.351 189.991 218.469 190.804 219.401C193.178 222.146 197.685 222.576 201.066 224.367C201.235 224.441 201.374 224.558 201.466 224.701C201.62 225.017 201.277 225.348 200.947 225.546C198.384 227.101 195.02 227.135 191.886 227.116C190.832 227.149 189.778 227.062 188.751 226.858C187.093 226.477 185.673 225.477 184.037 225.07C183.189 224.887 182.321 224.781 181.448 224.755L178.014 224.553C177.1 224.542 176.194 224.396 175.336 224.123C174.909 223.982 174.53 223.749 174.234 223.446C173.939 223.144 173.737 222.782 173.648 222.393C173.551 221.762 173.863 221.15 174.048 220.534C174.488 219.074 174.352 217.309 175.666 216.313C176.208 215.954 176.829 215.695 177.491 215.552C179.88 214.856 182.32 214.294 184.794 213.872C186.829 213.526 187.999 214.818 188.9 216.317Z" fill="#3F3D56"/>
<path d="M150.06 224.542C150.148 225.352 150.174 226.28 149.497 226.846C149.075 227.149 148.566 227.346 148.024 227.416C144.775 228.071 141.152 228.116 138.325 226.588C138.031 226.442 137.771 226.25 137.56 226.021C137.324 225.709 137.19 225.348 137.173 224.975C137.072 223.899 137.454 222.838 137.802 221.8C138.624 219.337 139.248 216.827 139.67 214.29C139.705 214.081 147.967 215.431 148.516 216.138C149.207 217.013 149.211 219.112 149.396 220.153C149.674 221.609 149.896 223.071 150.06 224.542Z" fill="#3F3D56"/>
<path d="M180.81 125.589L183.009 143.268C183.448 146.88 183.91 150.512 183.607 154.136C183.255 158.319 181.901 162.502 182.472 166.646C182.696 168.259 183.206 169.841 183.281 171.464C183.295 172.544 183.232 173.624 183.092 174.697C182.098 185.424 185.242 196.067 187.001 206.719C187.284 208.032 187.346 209.375 187.185 210.704C186.957 212.054 186.5 213.826 187.889 214.465L174.84 218.556C173.173 216.75 174.277 213.94 173.96 211.647C173.67 209.582 172.36 207.741 171.661 205.753C171.028 203.965 170.896 202.083 170.689 200.227C169.55 190.124 166.055 180.283 165.237 170.156C165.211 169.178 165.063 168.206 164.797 167.255C164.358 165.996 163.478 164.897 162.837 163.715C161.852 161.939 161.368 159.992 160.893 158.068L158.101 146.755C155.279 150.39 155.393 155.121 154.834 159.478C154.052 165.563 152.302 171.544 150.877 177.552C150.547 178.845 150.298 180.153 150.134 181.469C149.765 184.994 150.499 188.553 150.108 192.075C149.668 196.155 147.685 200.136 148.165 204.216C148.428 206.475 149.431 208.612 150.108 210.803C150.785 212.993 151.119 215.396 150.086 217.484C146.475 216.337 142.596 215.967 138.782 216.404C134.592 212.696 133.849 207.525 133.563 202.334C133.277 197.144 133.968 191.945 133.22 186.804C133 185.283 132.657 183.8 132.6 182.283C132.416 177.419 135.12 172.868 136.465 168.141C137.676 163.886 137.791 159.453 136.804 155.155C136.144 152.314 135.01 149.557 134.605 146.679C134.056 142.644 134.988 138.579 135.924 134.594C136.553 131.906 137.177 129.217 137.89 126.544C138.655 123.673 139.565 120.741 141.609 118.391C144.88 114.63 150.688 112.961 156.118 113.326C161.548 113.691 166.618 115.828 171.102 118.49C174.637 120.533 177.893 122.915 180.81 125.589Z" fill="#192534"/>
<path d="M166.222 57.8951C165.975 58.2377 165.804 58.6167 165.716 59.013C165.606 59.7926 166.156 60.5075 166.596 61.1881C167.159 62.0626 167.592 62.9954 167.884 63.9641C168.093 64.5636 168.158 65.194 168.073 65.8159C167.966 66.2831 167.773 66.7324 167.501 67.1469C166.653 68.5614 165.395 69.8695 163.685 70.459C162.361 70.8808 160.916 70.9313 159.557 70.6035C158.206 70.2728 156.929 69.7484 155.78 69.052C154.811 68.5209 153.939 67.8672 153.195 67.1126C152.483 66.2876 151.884 65.3944 151.409 64.4508C150.495 62.7967 149.567 61.0284 149.734 59.2146C149.743 59.0501 149.779 58.8875 149.84 58.7316C149.983 58.45 150.182 58.1924 150.429 57.9711C152.305 56.0486 153.267 53.5817 153.12 51.0693L159.526 52.328C160.937 52.6056 162.349 52.8832 163.742 53.2292C164.885 53.5144 166.644 53.9099 167.387 54.7921C168.13 55.6743 166.728 57.0889 166.222 57.8951Z" fill="#FBBEBE"/>
<path d="M162.793 56.9522C169.223 56.9522 174.435 52.444 174.435 46.8828C174.435 41.3217 169.223 36.8135 162.793 36.8135C156.363 36.8135 151.15 41.3217 151.15 46.8828C151.15 52.444 156.363 56.9522 162.793 56.9522Z" fill="#FBBEBE"/>
<path d="M160.92 67.1964C161.412 66.2648 162.476 65.6753 163.448 65.0897C164.419 64.5041 165.404 63.755 165.593 62.7397C165.605 62.5101 165.671 62.2849 165.787 62.0781C166.16 61.5913 167.049 61.8347 167.581 62.1921C168.873 63.0629 169.753 64.2988 170.61 65.5042C171.719 66.9701 172.668 68.5219 173.446 70.1396C174.681 72.9574 174.831 76.0337 174.967 79.0416C175.09 81.7795 175.209 84.5592 174.439 87.2135C173.956 88.8942 173.12 90.5255 173.072 92.2557C172.927 98.5415 170.403 104.55 170.227 110.835C170.214 112.653 170.32 114.47 170.544 116.277L170.957 120.357C164.564 120.04 158.189 119.555 151.832 118.901C151.647 117.022 151.027 115.201 150.46 113.383C148.137 105.952 146.649 98.3445 146.015 90.6662C145.676 86.5898 145.329 82.5286 144.806 78.4674C144.335 74.775 143.412 71.0599 143.966 67.3751C144.256 65.7003 144.865 64.0786 145.768 62.5762C146.054 61.9776 146.545 61.4693 147.175 61.1198C147.49 60.9882 147.825 60.8948 148.169 60.8422C149.166 60.6676 150.178 60.5645 151.194 60.5342C151.442 60.5161 151.693 60.5367 151.933 60.595C152.361 60.7797 152.713 61.0746 152.94 61.4392C154.898 63.9864 157.671 65.9865 160.92 67.1964Z" fill="#F2F2F2"/>
<path d="M155.52 66.3902C156.338 67.4017 158.07 67.6413 158.827 68.6718C159.081 69.1025 159.275 69.5583 159.403 70.0293C159.864 71.3032 160.796 72.4098 161.364 73.6532C162.181 75.4405 162.203 77.4178 162.212 79.3382C162.293 80.8678 162.157 82.4002 161.808 83.9013C161.544 84.8406 161.113 85.7342 160.796 86.662C160.259 88.2399 160.059 89.8895 160.207 91.5294C160.207 91.8837 160.317 92.2315 160.524 92.5371C160.822 92.8425 161.211 93.0713 161.649 93.1988C162.938 93.6893 164.287 94.1912 165.694 94.0772C165.983 94.0693 166.263 93.9887 166.499 93.8452C166.662 93.7167 166.796 93.5633 166.895 93.3927L167.774 92.1074C168.57 90.9324 169.401 89.6167 169.093 88.2744C168.87 87.5815 168.533 86.9196 168.095 86.3084C167.533 85.3164 167.054 84.2909 166.662 83.2397C165.259 79.7527 163.839 76.2162 163.522 72.5353C163.336 71.1344 163.517 69.7153 164.05 68.3828C164.463 67.5627 164.982 66.7858 165.598 66.067C165.458 65.9054 165.266 65.7843 165.045 65.7198C164.824 65.6553 164.586 65.6504 164.362 65.7057C163.92 65.8239 163.492 65.978 163.083 66.1658C161.79 66.6374 160.357 66.4663 159.051 66.143C158.541 66.0137 157.732 65.5726 157.204 65.6031C157.024 65.6221 155.551 66.4358 155.52 66.3902Z" fill="#6C63FF"/>
<path d="M165.813 66.3483C165.549 66.1657 165.14 65.9984 164.907 66.2114C164.829 66.3037 164.772 66.4083 164.74 66.5194C164.512 67.0518 163.839 67.3141 163.228 67.5195C162.617 67.7248 161.957 67.8389 161.588 67.4472C161.471 67.2947 161.414 67.1141 161.424 66.9315C161.435 66.7489 161.512 66.5739 161.645 66.4319C161.915 66.1501 162.241 65.912 162.608 65.7284C164.63 64.4938 166.008 62.6191 166.442 60.5112C167.009 60.9011 167.384 61.4622 167.493 62.0817C167.638 62.6863 167.655 63.31 167.8 63.9146C168.016 64.7816 168.495 65.5915 168.605 66.47C168.662 66.9377 168.605 67.4092 168.605 67.8769C168.625 68.3342 168.687 68.7894 168.79 69.2383C167.761 68.2952 167.035 67.1886 165.813 66.3483Z" fill="#F2F2F2"/>
<path d="M156.914 63.7663C156.474 63.4051 156.035 63.0628 155.595 62.694C153.666 61.0653 152.209 59.0652 151.344 56.8569C150.781 57.2372 150.161 57.7391 150.148 58.378C150.198 58.83 150.399 59.2596 150.728 59.6138C152.391 61.8784 153.488 64.4182 153.951 67.0708C154.188 66.7499 154.517 66.4872 154.906 66.3081C155.295 66.1289 155.731 66.0393 156.171 66.0479C156.866 66.0479 159.983 67.645 160.207 67.2419C160.537 66.6107 157.442 64.196 156.914 63.7663Z" fill="#F2F2F2"/>
<path d="M166.732 60.7395C170.868 64.3003 175.931 66.9514 181.496 68.4702C182.049 68.5746 182.563 68.7998 182.987 69.1243C183.303 69.4665 183.517 69.8717 183.607 70.3031C184.679 73.9308 185.04 77.684 185.396 81.4144C185.489 82.0314 185.474 82.6569 185.352 83.2701C185.093 84.2664 184.275 85.0725 183.47 85.8216C180.947 88.1603 178.067 90.6054 177.64 93.7844C177.608 94.3972 177.524 95.0072 177.39 95.6096C177.17 96.3169 176.682 96.9405 176.383 97.6288C174.914 101.017 178.234 105.12 176.211 108.276C177.306 110.095 178.057 112.054 178.436 114.079C178.504 114.847 178.707 115.601 179.038 116.315C179.641 117.403 180.881 118.095 181.857 118.977C184.833 121.616 185.198 125.654 185.374 129.339C185.484 131.415 185.449 133.799 183.615 135.161C182.556 135.956 181.109 136.214 179.724 136.412C177.882 136.678 175.877 136.868 174.246 136.081C173.076 135.518 172.281 134.533 171.52 133.583C170.078 131.769 168.631 129.959 167.264 128.099C165.101 125.167 163.061 121.817 163.685 118.38C163.509 121.897 162.652 125.441 160.656 128.506C158.66 131.571 155.446 134.13 151.546 135.142C147.646 136.153 143.087 135.438 140.18 132.974C139.232 132.13 138.417 131.179 137.758 130.149C136.103 127.699 134.896 125.042 134.179 122.274C133.99 121.555 133.849 120.753 134.267 120.11C134.465 119.806 134.768 119.566 134.975 119.266C135.669 118.243 135.001 116.954 134.328 115.912C133.304 115.996 132.57 114.954 132.662 114.064C132.754 113.174 133.37 112.402 133.805 111.592C135.08 109.204 134.799 106.424 134.183 103.85C133.568 101.276 132.649 98.7164 132.719 96.0887C132.794 93.309 130.481 90.8069 128.718 88.4835C127.733 87.1754 126.586 85.9585 125.728 84.5858C123.941 81.697 123.527 78.3189 124.576 75.1705C125.192 73.5538 125.999 71.9966 126.986 70.5237L128.437 68.1698C128.707 67.6074 129.126 67.1078 129.661 66.7115C130.195 66.3151 130.83 66.0331 131.514 65.8883L141.552 62.4659C142.836 62.0867 144.054 61.5597 145.175 60.8992C146.402 60.1006 147.316 58.9979 148.486 58.1461C148.656 57.9913 148.861 57.8674 149.087 57.7819C149.314 57.6964 149.558 57.6508 149.805 57.6479C150.746 57.7202 151.08 58.7469 151.176 59.5493C151.396 61.3441 152.935 62.8652 153.458 64.6106C156.29 74.2502 162.283 83.1408 163.927 92.982C165.774 89.1451 167.62 85.3007 169.986 81.6882C170.359 81.1696 170.672 80.6206 170.922 80.0493C171.206 79.2251 171.312 78.3627 171.234 77.5053C171.116 75.0298 170.355 72.6113 169.603 70.2194C168.627 66.9644 167.748 63.9641 166.732 60.7395Z" fill="#3F3D56"/>
<path d="M185.862 90.1946C186.056 91.8145 186.245 93.4382 186.592 95.0391C186.996 96.891 187.612 98.701 188.223 100.511C188.522 101.529 188.949 102.514 189.498 103.451C189.697 103.722 189.855 104.015 189.969 104.321C190.184 105.082 189.692 105.842 189.481 106.603C188.847 108.884 190.747 111.421 189.551 113.524C189.19 114.163 188.562 114.691 188.324 115.376C188.047 116.163 188.324 117.003 188.469 117.817C188.843 120.098 187.942 122.418 187.054 124.612L185.541 128.316C184.161 126.095 182.767 123.852 180.859 121.947C180.177 121.262 179.434 120.627 178.805 119.905C177.868 118.769 177.127 117.521 176.607 116.201C175.265 113.063 174.498 109.763 174.334 106.42C174.225 105.47 174.352 104.511 174.708 103.606C174.999 103.083 175.325 102.576 175.684 102.085C176.862 100.249 177.104 98.0736 177.082 95.9746C177.06 93.8755 176.8 91.7688 177.082 89.6812C177.311 87.9381 177.907 86.246 178.841 84.6883C179.391 83.6796 180.209 82.7976 181.228 82.114C181.988 81.6215 182.916 81.3608 183.866 81.3724C185.304 81.4447 184.974 82.5132 185.097 83.5438L185.862 90.1946Z" fill="#3F3D56"/>
<path d="M121.191 85.019C120.294 87.3006 119.485 89.6025 118.764 91.9246C118.06 94.2062 117.432 96.5005 116.878 98.8074C116.593 99.8217 116.434 100.859 116.403 101.903C116.459 103.118 116.7 104.321 117.12 105.481C119.951 114.307 125.113 122.448 130.925 130.103C132.586 128.312 134.559 126.754 136.773 125.487C136.954 125.394 137.105 125.263 137.212 125.106C137.268 124.959 137.284 124.802 137.26 124.648C137.236 124.493 137.171 124.346 137.072 124.217C135.467 121.372 132.926 118.866 132.126 115.775C131.791 114.489 131.778 113.151 131.4 111.873C130.912 110.219 129.822 108.706 129.571 107.01C129.303 105.162 130.011 103.146 129.008 101.507C131.053 100.819 132.235 98.9975 133.102 97.2521C134.027 95.4665 134.689 93.5871 135.071 91.6584C135.673 87.9609 134.837 84.1952 132.693 80.954C131.646 79.3373 130.302 77.8783 128.714 76.6342C128.19 76.2274 126.955 75.06 126.194 75.0714C125.179 75.0904 124.853 76.5126 124.563 77.1514C123.389 79.76 122.229 82.3724 121.191 85.019Z" fill="#3F3D56"/>
<path d="M139.402 127.582C139.534 127.666 139.683 127.78 139.648 127.917C139.613 128.054 139.486 128.088 139.371 128.145C138.777 128.51 138.333 129.029 138.105 129.628C137.374 131.052 136.737 132.511 136.197 133.997C135.213 132.722 134.056 131.554 132.75 130.518C131.747 129.719 130.626 128.962 130.09 127.882C130.09 127.852 132.394 126.38 132.605 126.221C133.251 125.723 134.064 124.342 134.733 124.038C135.489 123.696 136.21 125.038 136.786 125.578C137.578 126.32 138.455 126.991 139.402 127.582Z" fill="#FBBEBE"/>
<path d="M175.156 45.3085C175.125 44.8103 175.051 44.2589 174.611 43.9357C174.225 43.7048 173.76 43.5936 173.292 43.6201C170.729 43.5479 168.077 43.9205 165.659 43.1752C164.068 42.6847 162.709 41.7416 161.157 41.156C159.605 40.5704 157.618 40.4145 156.365 41.3994C155.415 42.1599 155.155 43.3273 154.826 44.4034C154.1 46.7786 152.807 48.9961 151.031 50.9135C149.84 50.5941 148.987 49.6739 148.437 48.708C146.569 45.4149 147.488 41.483 148.815 37.9922C149.255 36.821 149.743 35.6612 150.231 34.5052L151.304 31.9498C152.712 31.8302 154.02 31.2672 154.98 30.3679L155.441 31.3376C156.634 31.3005 157.784 30.9489 158.739 30.3299C159.108 30.9307 160.058 31.0904 160.827 30.8965C161.597 30.7026 162.261 30.3299 163.026 30.136C165.07 29.5656 167.251 30.444 169.396 30.5429C170.304 30.5237 171.213 30.5466 172.118 30.6113C174.65 30.9649 176.44 33.026 177.214 35.1402C177.728 36.5472 178.155 38.2774 179.759 38.7755C179.795 39.3079 178.704 39.4106 178.612 39.9163C178.601 40.085 178.647 40.2527 178.744 40.3993L180.217 43.1334C179.513 43.2862 178.772 43.2545 178.089 43.0421C177.425 44.392 175.222 46.339 175.156 45.3085Z" fill="#192534"/>
<path d="M249.795 51.2592C250.541 53.3443 251.128 55.4695 251.553 57.621C251.87 59.2334 252.055 61.0244 250.986 62.3705C255.058 57.0735 259.309 51.6167 265.495 48.1981C264.236 47.0168 263.277 45.6195 262.683 44.097C262.088 42.5745 261.87 40.9608 262.044 39.3608C262.079 39.0414 256.966 40.7107 256.574 40.9009C254.781 41.7641 253.136 42.8364 251.386 43.7605C250.481 44.2358 246.708 45.3614 246.673 46.042C246.673 46.4793 248.172 47.8179 248.454 48.278C249.006 49.2339 249.455 50.2319 249.795 51.2592Z" fill="#FBBEBE"/>
<path d="M268.714 251.042C267.708 250.43 266.53 250.064 265.304 249.984C264.078 249.904 262.85 250.112 261.749 250.586C259.758 251.476 258.417 253.16 256.605 254.301C253.492 256.256 249.381 256.412 245.736 257.469C244.769 257.75 243.74 258.169 243.331 258.99C243.194 259.335 243.14 259.701 243.171 260.065C243.202 260.429 243.318 260.784 243.512 261.108C244.121 262.283 245.189 263.234 246.528 263.796C248.163 264.473 250.045 264.504 251.857 264.523L267.597 264.682C272.433 264.732 277.3 264.781 282.106 265.302C283.227 265.424 284.441 265.557 285.43 265.082C287.039 264.321 287.224 262.397 287.101 260.811C286.777 256.794 285.739 252.843 284.023 249.099C283.834 248.685 283.583 248.213 283.051 248.137C282.674 248.122 282.303 248.225 282.005 248.426C277.564 250.708 271.941 251.997 267.219 250.172" fill="white"/>
<path d="M276.593 164.19C274.834 173.023 275.981 182.1 277.96 190.896C278.324 192.647 278.804 194.379 279.398 196.083C280.106 198.022 281.06 199.885 281.724 201.836C283.412 206.779 283.174 212.065 282.924 217.225L281.772 240.706C281.675 242.676 281.587 244.692 282.273 246.57C282.55 247.331 282.889 248.281 282.19 248.795C281.916 248.965 281.597 249.071 281.262 249.103C278.116 249.604 274.866 249.182 272.029 247.905L271.717 224.184C271.62 216.872 271.519 209.529 270.217 202.307C269.184 196.566 267.39 190.9 267.272 185.089C267.148 179.005 268.872 173.001 270.631 167.103C271.009 165.84 272.389 164.916 273.524 164.061C273.92 163.723 274.401 163.47 274.931 163.323C275.458 163.197 276.267 163.806 276.593 164.19Z" fill="#3F3D56"/>
<path opacity="0.1" d="M276.593 164.19C274.834 173.023 275.981 182.1 277.96 190.896C278.324 192.647 278.804 194.379 279.398 196.083C280.106 198.022 281.06 199.885 281.724 201.836C283.412 206.779 283.174 212.065 282.924 217.225L281.772 240.706C281.675 242.676 281.587 244.692 282.273 246.57C282.55 247.331 282.889 248.281 282.19 248.795C281.916 248.965 281.597 249.071 281.262 249.103C278.116 249.604 274.866 249.182 272.029 247.905L271.717 224.184C271.62 216.872 271.519 209.529 270.217 202.307C269.184 196.566 267.39 190.9 267.272 185.089C267.148 179.005 268.872 173.001 270.631 167.103C271.009 165.84 272.389 164.916 273.524 164.061C273.92 163.723 274.401 163.47 274.931 163.323C275.458 163.197 276.267 163.806 276.593 164.19Z" fill="black"/>
<path d="M243.578 136.583C242.927 138.899 244.308 141.298 244.154 143.679C244.066 145.12 243.411 146.557 243.714 147.972C244.017 149.387 245.187 150.451 245.811 151.748C246.267 152.831 246.507 153.972 246.524 155.125C246.704 157.969 246.559 160.829 246.436 163.662C246.229 168.415 246.075 173.195 246.801 177.906C247.432 181.988 248.715 185.974 250.612 189.751C251.188 190.779 251.663 191.846 252.033 192.942C252.276 193.963 252.437 194.997 252.516 196.037C252.934 199.42 253.984 202.722 255.625 205.814C256.746 207.932 258.702 209.616 259.322 211.864C259.911 214.016 259.516 216.286 259.942 218.465C260.254 220.081 261.015 221.61 261.437 223.207C261.987 225.272 261.974 227.413 262.251 229.519C263.042 235.604 266.238 241.688 264.33 247.589C263.948 248.776 263.354 249.981 263.622 251.191C263.754 251.784 264.088 252.369 263.939 252.959C263.816 253.461 263.367 253.849 263.139 254.324C262.699 255.214 263.165 256.271 263.948 256.959C264.782 257.601 265.753 258.097 266.806 258.419C270.046 259.617 273.401 260.834 276.918 260.807C277.345 260.827 277.771 260.759 278.162 260.61C278.795 260.325 279.108 259.705 279.376 259.134L281.178 255.278C281.398 254.811 281.618 254.263 281.315 253.83C281.103 253.592 280.848 253.386 280.558 253.221C279.103 252.16 279.433 250.179 279.82 248.586C280.808 244.494 281.356 240.331 281.455 236.151C281.649 227.816 280.062 219.53 278.479 211.305C277.929 208.449 277.375 205.574 276.28 202.836C275.186 200.098 273.572 197.463 273.836 194.619C274.117 191.546 273.194 188.325 273.836 185.295C274.478 182.264 275.493 179.298 276.149 176.271C276.997 172.343 277.208 168.339 277.468 164.354C277.577 162.726 277.718 161.045 278.598 159.6C279.112 158.756 279.859 158.034 280.435 157.216C281.921 155.09 282.159 152.455 283.579 150.295C284.252 149.272 285.179 148.371 285.672 147.276C286.018 146.412 286.199 145.505 286.208 144.591C286.348 142.296 286.2 139.995 285.769 137.728C278.284 134.434 269.984 132.768 261.587 132.875C258.373 132.921 255.123 133.203 252.107 134.165C249.232 135.089 246.611 136.385 243.578 136.583Z" fill="#3F3D56"/>
<path d="M261.604 257.058C260.312 258.45 260.399 260.438 259.573 262.077C258.57 264.066 256.337 265.34 254.218 266.5L241.028 273.725C240.307 274.105 239.533 274.573 239.269 275.28C239.144 275.732 239.166 276.204 239.335 276.645C239.65 277.599 240.237 278.47 241.042 279.177C241.847 279.884 242.844 280.405 243.943 280.691C245.11 280.932 246.309 281.038 247.508 281.007L253.439 281.075C255.246 281.136 257.056 281.075 258.852 280.893C260.496 280.687 262.097 280.281 263.732 280.022C266.709 279.554 269.769 279.596 272.75 279.144C274.575 278.833 276.378 278.431 278.149 277.938C280.303 277.379 282.497 276.797 284.344 275.691C284.852 275.423 285.265 275.039 285.535 274.58C285.848 273.953 285.676 273.234 285.5 272.569L282.669 261.807C282.509 260.911 282.131 260.055 281.561 259.294C280.932 258.571 279.802 258.092 278.822 258.4C278.417 258.56 278.035 258.759 277.683 258.993C276.232 259.819 274.372 259.955 272.658 259.697C271.55 259.526 270.085 259.263 269.193 258.628C268.516 258.145 268.314 257.396 267.738 256.849C267.334 256.49 266.847 256.209 266.31 256.023C265.772 255.838 265.195 255.752 264.617 255.772C264.039 255.792 263.472 255.916 262.952 256.138C262.433 256.359 261.974 256.673 261.604 257.058Z" fill="white"/>
<path d="M253.053 49.7766C261.826 49.7766 268.938 43.6255 268.938 36.0377C268.938 28.4499 261.826 22.2988 253.053 22.2988C244.279 22.2988 237.167 28.4499 237.167 36.0377C237.167 43.6255 244.279 49.7766 253.053 49.7766Z" fill="#FBBEBE"/>
<path d="M240.799 36.8437C242.32 36.106 242.32 33.9804 243.877 33.2731C245.433 32.5658 247.201 33.794 248.199 35.0337C249.653 36.8492 250.663 38.9029 251.166 41.0685C251.307 41.6845 251.439 42.3576 251.975 42.7873C252.512 43.217 253.215 43.2702 253.901 43.331C255.909 43.5034 257.92 43.6606 259.933 43.8026C262.176 43.9585 264.541 44.084 266.577 43.2512C267.38 42.9405 268.07 42.4462 268.573 41.8214C268.976 41.2215 269.264 40.5691 269.426 39.8897C270.477 36.4331 271.536 32.9346 271.624 29.3602C271.659 27.8847 271.51 26.3561 270.688 25.0632C270.209 24.3027 269.505 23.641 269.307 22.8044C269.109 21.9679 269.747 20.9031 270.749 20.9944C269.843 21.0266 268.941 20.8783 268.111 20.5609C267.316 20.1806 266.726 19.363 267.008 18.6177C264.774 18.8649 263.147 16.956 261.406 15.7201C261.123 15.4774 260.741 15.3408 260.342 15.3399C260.036 15.4059 259.741 15.5042 259.463 15.6327C258.584 15.8988 257.665 15.3931 256.763 15.1725C254.345 14.5869 251.272 16.0015 249.478 14.4805C249.65 15.4501 248.273 16.1004 247.139 16.0814C246.005 16.0624 244.835 15.7011 243.762 16.0281C243.918 16.2739 244.008 16.5464 244.028 16.826C244.047 17.1056 243.995 17.3855 243.875 17.6456C243.755 17.9058 243.57 18.1397 243.333 18.3308C243.096 18.5218 242.813 18.6653 242.505 18.7508L243.037 19.7547C242.489 19.8495 241.982 20.0749 241.574 20.4055C241.166 20.7361 240.874 21.1587 240.729 21.6256C240.144 23.622 240.289 26.4588 240.43 28.5122C240.5 29.4134 241.516 36.5053 240.799 36.8437Z" fill="#192534"/>
<path d="M254.354 53.7464C246.374 61.5075 244.343 72.4325 242.641 82.7186L240.135 97.9063C239.484 101.846 238.816 105.785 238.249 109.736C237.853 112.44 237.484 115.186 237.915 117.885C238.253 120.015 239.075 122.068 239.761 124.118C241.546 129.494 242.434 135.062 242.399 140.656C242.931 139.302 244.774 138.754 246.392 138.45C259.968 135.902 274.132 137.211 286.78 142.18C289 136.8 288.582 130.913 289.202 125.224C290.082 117.113 293.111 109.253 294.008 101.158C294.338 98.1421 294.377 95.1114 294.412 92.0807C294.439 89.8562 294.465 87.6088 293.929 85.4299C293.331 83.019 292.069 80.7717 290.763 78.5852C287.153 72.5071 283.143 66.6135 278.751 60.9334C276.541 58.0738 274.236 55.2712 271.835 52.5257C270.619 51.134 269.378 49.7574 268.111 48.3961C266.885 47.0766 266.353 45.932 264.405 46.7229C260.725 48.2135 257.032 51.1416 254.354 53.7464Z" fill="#6C63FF"/>
<path d="M258.927 118.345C256.98 118.406 255.031 118.353 253.092 118.186C251.654 118.064 250.186 117.881 248.783 118.186C248.174 118.319 247.603 118.561 247.108 118.897C246.925 119.038 246.793 119.222 246.729 119.427C246.665 119.632 246.672 119.848 246.748 120.05C246.824 120.252 246.966 120.43 247.157 120.563C247.349 120.696 247.581 120.778 247.825 120.798L249.329 120.912C250.283 120.984 251.276 121.068 252.019 121.673C252.324 121.91 252.518 122.236 252.565 122.589C252.657 123.475 251.769 123.958 250.973 124.327C249.842 124.786 248.795 125.389 247.869 126.114C247.143 126.72 246.687 127.528 246.581 128.396C246.577 128.473 246.597 128.55 246.639 128.618C246.681 128.687 246.743 128.745 246.819 128.786C246.894 128.827 246.981 128.85 247.071 128.853C247.16 128.856 247.249 128.839 247.328 128.803C249.087 128.042 250.234 125.787 252.164 126.164C250.409 126.644 248.905 127.645 247.917 128.989C247.674 129.31 247.562 129.693 247.602 130.075C247.641 130.458 247.829 130.817 248.134 131.096C248.44 131.375 248.845 131.556 249.284 131.61C249.724 131.665 250.172 131.589 250.555 131.396C250.841 131.251 251.117 131.093 251.382 130.921C252.69 130.005 253.861 128.953 254.868 127.787C253.461 130.354 252.037 133.358 253.655 135.91C253.736 136.05 253.862 136.167 254.018 136.247C254.174 136.327 254.353 136.365 254.534 136.358C255.044 136.313 255.194 135.898 255.277 135.533C255.541 134.358 255.607 133.119 256.275 132.073C257.823 129.647 261.639 129.411 264.546 128.228C268.032 126.829 270.42 123.817 271.382 120.6C271.719 119.662 271.778 118.666 271.554 117.703C270.908 115.539 267.821 115.041 265.838 116.087C263.407 117.421 261.995 118.262 258.927 118.345Z" fill="#FBBEBE"/>
<path opacity="0.1" d="M255.84 75.7827C258.918 79.8933 264.26 82.2091 268.841 85.0953C269.959 85.7249 270.934 86.5266 271.717 87.4606C272.873 89.0044 273.036 90.9666 272.798 92.7842C272.499 95.1837 271.607 97.4919 270.723 99.7811L268.802 104.744C267.584 107.892 266.326 111.105 264.009 113.752C263.416 114.425 262.725 115.144 262.752 115.988C262.803 116.476 262.997 116.944 263.315 117.349C264.056 118.396 265.033 119.303 266.188 120.016C267.343 120.729 268.652 121.235 270.037 121.502C270.867 121.684 271.736 121.684 272.565 121.502C273.752 121.197 274.645 120.361 275.471 119.57C279.428 115.794 283.385 111.965 286.243 107.535C289.035 103.211 290.706 98.4083 292.245 93.6512C292.879 91.9 293.32 90.101 293.564 88.2781C293.889 84.8557 292.852 81.4334 291.154 78.3418C289.457 75.2503 287.123 72.4516 284.718 69.7327C282.448 67.0621 279.926 64.559 277.177 62.2491C272.394 58.3818 266.542 56.1079 260.14 58.302C255.62 59.8535 253.928 63.0895 253.523 67.2344C253.181 70.227 253.995 73.2334 255.84 75.7827Z" fill="black"/>
<path d="M257.441 74.7406C260.518 78.8512 265.865 81.1671 270.442 84.0533C271.556 84.689 272.526 85.4958 273.304 86.4337C274.46 87.9776 274.623 89.9359 274.385 91.7574C274.082 94.1568 273.194 96.465 272.306 98.7542L270.384 103.698C269.167 106.846 267.909 110.056 265.592 112.706C265.003 113.379 264.313 114.094 264.339 114.942C264.387 115.429 264.581 115.897 264.902 116.3C265.642 117.347 266.618 118.254 267.773 118.968C268.927 119.682 270.235 120.188 271.62 120.456C272.451 120.638 273.321 120.638 274.152 120.456C275.34 120.155 276.228 119.315 277.059 118.528C281.016 114.748 284.973 110.923 287.831 106.493C290.623 102.169 292.293 97.3663 293.832 92.6054C294.468 90.8558 294.909 89.0579 295.151 87.2361C295.476 83.8137 294.439 80.3913 292.746 77.296C291.053 74.2006 288.714 71.4057 286.309 68.6868C284.032 66.0302 281.504 63.5411 278.751 61.2451C273.972 57.3816 268.12 55.1038 261.719 57.3017C257.194 58.8532 255.506 62.0854 255.097 66.2341C254.774 69.2154 255.598 72.2055 257.441 74.7406Z" fill="#6C63FF"/>
<path d="M354.661 211.137C354.664 212.129 354.546 213.118 354.309 214.088C354.265 214.271 354.216 214.469 354.168 214.624C352.919 218.956 349.398 222.123 345.194 222.325C345.054 222.325 344.913 222.325 344.755 222.325C340.31 222.325 336.551 219.009 335.311 214.442C335.275 214.32 335.245 214.199 335.214 214.062C334.977 213.092 334.859 212.102 334.862 211.111C334.862 204.924 339.29 199.912 344.755 199.912C350.22 199.912 354.661 204.962 354.661 211.137Z" fill="#3F3D56"/>
<path opacity="0.1" d="M354.661 211.137C354.664 212.129 354.546 213.118 354.309 214.088C354.265 214.271 354.216 214.469 354.168 214.625C354.019 214.625 353.874 214.625 353.728 214.625C352.64 214.574 351.557 214.447 350.492 214.244C349.549 214.496 348.585 214.687 347.608 214.815C346.859 214.912 346.105 214.973 345.348 214.997H344.583C343.677 214.997 342.773 214.945 341.875 214.841C340.423 214.674 338.997 214.368 337.623 213.929C336.871 214.145 336.105 214.323 335.328 214.461C335.293 214.339 335.262 214.218 335.231 214.081C334.994 213.111 334.876 212.121 334.88 211.13C334.88 204.943 339.307 199.931 344.772 199.931C350.237 199.931 354.661 204.962 354.661 211.137Z" fill="black"/>
<path d="M375.765 190.276C375.769 187.553 375.031 184.868 373.61 182.439L361.977 185.568L372.19 180.374C370.477 178.234 368.23 176.454 365.615 175.166C363.001 173.877 360.085 173.113 357.083 172.928C356.605 172.301 356.081 171.702 355.514 171.134L338.806 175.632L352.511 168.662C349.889 166.922 346.812 165.767 343.552 165.301C340.291 164.834 336.948 165.07 333.818 165.987C330.688 166.904 327.868 168.474 325.607 170.558C323.346 172.642 321.713 175.177 320.854 177.936L335.166 192.185L319.641 182.473C315.708 184.885 312.908 188.44 311.752 192.488C310.595 196.536 311.159 200.809 313.34 204.528C315.52 208.247 319.174 211.164 323.633 212.749C328.093 214.333 333.063 214.479 337.637 213.16C341.774 214.476 346.295 214.584 350.51 213.468C353.449 214.028 356.495 214.01 359.424 213.417C362.354 212.824 365.092 211.67 367.439 210.041C369.785 208.412 371.679 206.348 372.981 204.002C374.284 201.656 374.961 199.088 374.965 196.486C374.965 196.105 374.965 195.725 374.921 195.345C375.49 193.701 375.775 191.992 375.765 190.276Z" fill="#6C63FF"/>
<path opacity="0.1" d="M375.417 193.5C369.274 192.493 362.973 192.424 356.802 193.295C349.815 194.295 342.675 196.493 335.843 194.888C331.833 193.945 328.368 191.763 324.451 190.55C320.671 189.409 316.599 189.199 312.69 189.941C311.2 193.024 310.767 196.413 311.445 199.702C312.122 202.992 313.88 206.043 316.508 208.492C319.137 210.94 322.525 212.683 326.267 213.51C330.01 214.338 333.949 214.217 337.615 213.16C341.752 214.475 346.273 214.584 350.488 213.468C353.427 214.027 356.473 214.01 359.402 213.417C362.332 212.824 365.07 211.67 367.417 210.041C369.763 208.411 371.657 206.348 372.959 204.002C374.261 201.656 374.939 199.088 374.943 196.486C374.943 196.105 374.943 195.725 374.899 195.345C375.111 194.739 375.284 194.123 375.417 193.5Z" fill="black"/>
</g>
<defs>
<clipPath id="clip0_14_603">
<rect width="481" height="289" fill="white"/>
</clipPath>
</defs>
</svg>
